<svg width="40" height="40" viewBox="0 0 40 40" fill="none" xmlns="http://www.w3.org/2000/svg">
<path opacity="0.9" d="M39.996 20.0244C40.001 16.2014 38.9102 12.457 36.8526 9.23492C34.795 6.01282 31.8569 3.44802 28.3865 1.8444C24.916 0.240767 21.0586 -0.334494 17.2713 0.186778C13.484 0.70805 9.92536 2.304 7.01718 4.78556C4.10899 7.26711 1.97308 10.5303 0.862452 14.1884C-0.248174 17.8466 -0.286924 21.7465 0.750744 25.426C1.78841 29.1055 3.85905 32.4105 6.71731 34.9494C9.57558 37.4883 13.1017 39.1547 16.8779 39.7511V25.8011H11.8021V20.0244H16.8779V15.6156C16.8779 10.5963 19.8624 7.83797 24.4295 7.83797C25.9441 7.85595 27.4554 7.98442 28.9514 8.22233V13.1399H26.4304C26.0003 13.0839 25.5632 13.1253 25.1513 13.261C24.7394 13.3967 24.3632 13.6232 24.0506 13.9239C23.738 14.2245 23.4971 14.5915 23.3454 14.9978C23.1938 15.4042 23.1354 15.8394 23.1746 16.2713V20.0244H28.7139L27.8321 25.8011H23.1746V39.7511C27.8655 38.9987 32.1349 36.6 35.2175 32.9851C38.3001 29.3701 39.9942 24.7753 39.996 20.0244Z" fill="url(#paint0_linear_671_164)"/>
<defs>
<linearGradient id="paint0_linear_671_164" x1="19.998" y1="0" x2="19.998" y2="39.7511" gradientUnits="userSpaceOnUse">
<stop stop-color="#02A9F9"/>
<stop offset="1" stop-color="#0560FA"/>
</linearGradient>
</defs>
</svg>
