<svg width="40" height="40" viewBox="0 0 40 40" fill="none" xmlns="http://www.w3.org/2000/svg">
<path d="M14.6505 0.0267944C12.4462 0.0267944 10.6451 1.82304 10.6451 4.02143C10.6451 6.21982 12.4462 8.01607 14.6505 8.01607H18.6558V4.02143C18.6558 1.82304 16.8816 0.0267944 14.6505 0.0267944ZM14.6505 10.6702H4.00535C1.80107 10.6702 0 12.4665 0 14.6649C0 16.8633 1.80107 18.6595 4.00535 18.6595H14.6773C16.8816 18.6595 18.6827 16.8633 18.6827 14.6649C18.6558 12.4665 16.8816 10.6702 14.6505 10.6702Z" fill="#36C5F0"/>
<path d="M39.9991 14.6649C39.9991 12.4665 38.198 10.6702 35.9937 10.6702C33.7895 10.6702 31.9884 12.4665 31.9884 14.6649V18.6595H35.9937C38.198 18.6863 39.9991 16.8901 39.9991 14.6649ZM29.3271 14.6649V3.99464C29.3271 1.79625 27.5261 0 25.3218 0C23.1175 0 21.3164 1.79625 21.3164 3.99464V14.6649C21.3164 16.8633 23.1175 18.6595 25.3218 18.6595C27.5529 18.6863 29.3271 16.8901 29.3271 14.6649Z" fill="#2EB67D"/>
<path d="M25.3218 40C27.5261 40 29.3271 38.2038 29.3271 36.0054C29.3271 33.807 27.5261 32.0107 25.3218 32.0107H21.3164V36.0054C21.3164 38.2038 23.1175 40 25.3218 40ZM25.3218 29.3298H35.9937C38.198 29.3298 39.9991 27.5335 39.9991 25.3351C39.9991 23.1367 38.198 21.3405 35.9937 21.3405H25.3218C23.1175 21.3405 21.3164 23.1367 21.3164 25.3351C21.3164 27.5335 23.1175 29.3298 25.3218 29.3298Z" fill="#ECB22E"/>
<path d="M0 25.3351C0 27.5335 1.80107 29.3298 4.00535 29.3298C6.20964 29.3298 8.01071 27.5335 8.01071 25.3351V21.3405H4.00535C1.77418 21.3405 0 23.1367 0 25.3351ZM10.672 25.3351V36.0054C10.672 38.2038 12.4731 40 14.6773 40C16.8816 40 18.6827 38.2038 18.6827 36.0054V25.3351C18.6827 23.1367 16.8816 21.3405 14.6773 21.3405C12.4462 21.3405 10.672 23.1367 10.672 25.3351Z" fill="#E01E5A"/>
</svg>
