<svg width="40" height="40" viewBox="0 0 40 40" fill="none" xmlns="http://www.w3.org/2000/svg">
<path d="M20 40C31.0457 40 40 31.0457 40 20C40 8.9543 31.0457 0 20 0C8.9543 0 0 8.9543 0 20C0 31.0457 8.9543 40 20 40Z" fill="url(#paint0_linear_1858_692)"/>
<path d="M29.7265 11.5024L26.1521 29.5092C26.1521 29.5092 25.65 30.7606 24.2787 30.1611L16.036 23.8441L13.0386 22.3979L7.99549 20.6969C7.99549 20.6969 7.22367 20.4196 7.14874 19.8201C7.0738 19.2207 8.02547 18.8985 8.02547 18.8985L28.0854 11.0303C28.0779 11.0303 29.7265 10.3035 29.7265 11.5024Z" fill="white"/>
<path d="M15.4073 29.3143C15.4073 29.3143 15.1675 29.2919 14.8678 28.3402C14.568 27.3885 13.0469 22.3979 13.0469 22.3979L25.1638 14.7021C25.1638 14.7021 25.8607 14.275 25.8382 14.7021C25.8382 14.7021 25.9656 14.7771 25.5909 15.1293C25.2162 15.4815 16.0742 23.6943 16.0742 23.6943" fill="#D3E6F2"/>
<path d="M19.2057 26.2645L15.9461 29.2394C15.9461 29.2394 15.6913 29.4343 15.4141 29.3144L16.036 23.7917" fill="#B6D0E5"/>
<defs>
<linearGradient id="paint0_linear_1858_692" x1="19.9986" y1="0" x2="19.9986" y2="39.8513" gradientUnits="userSpaceOnUse">
<stop stop-color="#42BDE9"/>
<stop offset="1" stop-color="#23A8DD"/>
</linearGradient>
</defs>
</svg>
