<svg width="40" height="30" viewBox="0 0 40 30" fill="none" xmlns="http://www.w3.org/2000/svg">
<g clip-path="url(#clip0_672_175)">
<path d="M33.8597 2.67272C31.3245 1.52726 28.564 0.709079 25.6907 0.21817C25.6344 0.21817 25.578 0.21817 25.578 0.272716C25.24 0.872716 24.8456 1.6909 24.564 2.2909C21.4654 1.85453 18.4231 1.85453 15.4372 2.2909C15.1555 1.63635 14.7611 0.872716 14.4231 0.272716C14.4231 0.21817 14.3668 0.21817 14.3104 0.21817C11.4372 0.709079 8.73297 1.52726 6.14142 2.67272C6.14142 2.67272 6.08508 2.67272 6.08508 2.72726C0.901982 10.2 -0.506469 17.5091 0.169587 24.7636C0.169587 24.8182 0.169587 24.8182 0.225925 24.8727C3.66254 27.3273 6.98649 28.8 10.1978 29.7818C10.2541 29.7818 10.3104 29.7818 10.3104 29.7273C11.0992 28.6909 11.7752 27.6545 12.3386 26.5091C12.3949 26.4545 12.3386 26.3454 12.2823 26.3454C11.2118 25.9636 10.1414 25.4727 9.18367 24.9273C9.12733 24.8727 9.071 24.7636 9.18367 24.7091C9.40902 24.5454 9.57804 24.3818 9.80339 24.2182C9.85973 24.1636 9.91607 24.1636 9.91607 24.2182C16.4513 27.1091 23.5499 27.1091 30.0287 24.2182C30.0851 24.2182 30.1414 24.2182 30.1414 24.2182C30.3668 24.3818 30.5358 24.5454 30.7611 24.7091C30.8175 24.7636 30.8175 24.8727 30.7611 24.9273C29.7471 25.4727 28.733 25.9636 27.6625 26.3454C27.6062 26.3454 27.5499 26.4545 27.6062 26.5091C28.2259 27.6545 28.902 28.6909 29.6344 29.7273C29.6907 29.7818 29.7471 29.7818 29.7471 29.7818C33.0147 28.8 36.3386 27.3273 39.7752 24.8727C39.8316 24.8727 39.8316 24.8182 39.8316 24.7636C40.6766 16.4182 38.4231 9.16362 33.8597 2.67272C33.9161 2.67272 33.8597 2.67272 33.8597 2.67272ZM13.3527 20.3454C11.3809 20.3454 9.74705 18.6 9.74705 16.4182C9.74705 14.2364 11.3245 12.4909 13.3527 12.4909C15.3809 12.4909 16.9583 14.2364 16.9583 16.4182C16.9583 18.6 15.3809 20.3454 13.3527 20.3454ZM26.6485 20.3454C24.6766 20.3454 23.0428 18.6 23.0428 16.4182C23.0428 14.2364 24.6203 12.4909 26.6485 12.4909C28.6766 12.4909 30.2541 14.2364 30.2541 16.4182C30.2541 18.6 28.6766 20.3454 26.6485 20.3454Z" fill="#5865F2"/>
</g>
<defs>
<clipPath id="clip0_672_175">
<rect width="40" height="30" fill="white"/>
</clipPath>
</defs>
</svg>
