<svg version="1.2" xmlns="http://www.w3.org/2000/svg" viewBox="0 0 261 257" width="261" height="257">
	<title>hive_ltdGaurantee-svg</title>
	<defs>
		<clipPath clipPathUnits="userSpaceOnUse" id="cp1">
			<path d="m13.06 55.87l185.71-49.76 51.37 191.7-185.71 49.76z"/>
		</clipPath>
	</defs>
	<style>
		.s0 { fill: #ffffff;stroke: #685be7;stroke-linejoin: round;stroke-width: 3 } 
		.s1 { fill: none;stroke: #685be7;stroke-width: 3 } 
		.s2 { fill: #685be7 } 
	</style>
	<path id="Layer" class="s0" d="m97.6 2.4l36.3 4.7 36.4-3 27.9 23.5 32.3 17.3 10.8 34.9 17.8 31.9-9.8 35.2-2.3 36.5-27.2 24.3-21.7 29.5-36 5.7-34.2 13.1-33.4-14.7-35.8-7.5-20.2-30.4-26.1-25.6-0.5-36.6-8.1-35.6 19.3-31 12.4-34.4 33.1-15.6z"/>
	<g id="Clip-Path" clip-path="url(#cp1)">
		<g id="Layer">
			<path id="Layer" class="s1" d="m73.5 142.4c-8.5-31.8 10.3-64.4 42.1-72.9 31.8-8.5 64.4 10.3 72.9 42.1 8.5 31.8-10.3 64.4-42.1 72.9-31.8 8.5-64.4-10.3-72.9-42.1z"/>
			<path id="Layer" class="s2" d="m63.1 180.4c-3.5 3.2-3.6 7-1 9.9 2.5 2.8 5.4 3.1 8 0.9v-0.1l-4.2-4.8 2.4-2.2 6.6 7.5-8.9 7.9-2.1-2.4 1.7-1.8c-2 0.2-4.4-0.9-6.4-3-3.9-4.5-3.4-10.5 1.5-14.8 4.8-4.3 11.1-4.2 15.3 0.6 3.2 3.7 3.6 8.4 0.8 11.7l-2.6-3c1.4-2.2 0.9-4.5-0.9-6.5-2.8-3.1-6.7-2.9-10.2 0.1z"/>
			<path id="Layer" class="s2" d="m84.1 187l3.1 2-7.2 11.2c-1.6 2.5-1.2 4.9 1.4 6.5 2.5 1.6 4.9 1.1 6.5-1.5l7.2-11.1 3.1 2-7.4 11.4c-2.7 4.2-7.1 5-11.5 2.2-4.3-2.8-5.4-7.2-2.7-11.4z"/>
			<path id="Layer" fill-rule="evenodd" class="s2" d="m91.9 216.8l14.2-17.6 3.5 1.2 0.4 22.6-3.7-1.2-0.1-5.2-7.4-2.6-3.2 4.1zm8.9-5.4l5.5 1.8-0.1-7.3c0-0.6 0-1.3 0.1-1.7-0.2 0.4-0.6 0.9-1 1.4z"/>
			<path id="Layer" fill-rule="evenodd" class="s2" d="m117 224.4l1.8-21.3 8.1 0.7c4.8 0.4 7.4 3.1 7 7.3-0.2 2.9-1.7 4.8-4.3 5.5l3.3 9.1-4.1-0.3-2.9-8.3-4.5-0.4-0.7 7.9zm4.7-10.9l4.4 0.4c2.3 0.2 3.8-0.9 4.1-3 0.1-2.1-1.1-3.5-3.5-3.7l-4.4-0.4z"/>
			<path id="Layer" fill-rule="evenodd" class="s2" d="m140.6 225.3l-3.3-21.1 8-1.2c4.8-0.7 8 1.3 8.6 5.4 0.5 2.8-0.5 5.1-2.9 6.4l5.4 8-4 0.7-4.8-7.3-4.5 0.6 1.2 7.9zm1.9-11.7l4.3-0.7c2.3-0.4 3.5-1.8 3.2-3.9-0.4-2.1-1.9-3.1-4.2-2.7l-4.3 0.7z"/>
			<path id="Layer" fill-rule="evenodd" class="s2" d="m161.9 221.4l-1.2-22.6 3.6-1.5 15.3 16.8-3.7 1.5-3.4-3.9-7.3 3.1 0.3 5.2zm3.1-10.1l5.3-2.2-4.9-5.4c-0.4-0.5-0.8-1-1.1-1.4 0.1 0.5 0.2 1.1 0.3 1.7z"/>
			<path id="Layer" class="s2" d="m185.7 210.3l-13-16.9 3-2.3 17.1 5.9-9.3-11.9 3-2.3 12.9 17-2.9 2.2-17.1-5.9 9.2 12z"/>
			<path id="Layer" class="s2" d="m187.8 181.3l10.1-12.7 2.6 2.1-3.8 4.9 13.9 11.2-2.3 2.9-13.9-11.1-3.9 4.9z"/>
			<path id="Layer" class="s2" d="m217.9 176.1l-19.1-9.4 5.8-11.9 3.1 1.5-4.2 8.5 5 2.4 3.7-7.7 3 1.5-3.8 7.7 5 2.5 4.2-8.6 3.1 1.6z"/>
			<path id="Layer" class="s2" d="m226.4 156.6l-20.6-5.1 3.1-12.8 3.3 0.8-2.3 9.2 5.3 1.3 2-8.2 3.2 0.8-2 8.2 5.5 1.4 2.3-9.3 3.3 0.9z"/>
			<path id="Layer" class="s2" d="m56.7 123.3l-23.5-5 0.8-4 20.3-3.7-17.2-11.5 0.9-4 23.5 4.9-0.8 4-7.2-1.5c-4.8-1-6.2-1.3-7.8-1.9l13.8 9.2-0.7 3.8-16.3 2.8c1.5 0.1 3.7 0.6 6.6 1.1l8.5 1.8z"/>
			<path id="Layer" fill-rule="evenodd" class="s2" d="m67.7 89.8c-3.3 6-10.1 7.6-16.4 3.9-6.4-3.7-8.5-10.4-5.1-16.3 3.4-6 10.2-7.7 16.5-4 6.4 3.6 8.5 10.4 5 16.4zm-18-10.4c-2.2 3.8-0.7 7.9 3.8 10.5 4.4 2.5 8.6 1.7 10.8-2.1 2.2-3.9 0.8-8-3.7-10.5-4.5-2.6-8.7-1.8-10.9 2.1z"/>
			<path id="Layer" class="s2" d="m73.8 79.1l-16.6-17.4 3-3 19.8 4.6-11.6-12.4 3-2.8 16.6 17.5-3 2.8-20-4.5 11.8 12.4z"/>
			<path id="Layer" class="s2" d="m90 64.5l-11.7-21.1 13-7.3 1.9 3.4-9.3 5.3 3 5.3 8.4-4.6 1.8 3.3-8.4 4.6 3.1 5.6 9.3-5.2 1.9 3.4z"/>
			<path id="Layer" class="s2" d="m96 34l4.5-1.3 7 7.2c0.5 0.5 0.8 0.9 1.3 1.4 0.1-0.6 0.1-1.1 0.3-1.9l2.1-9.7 4.4-1.3-3.8 16.3 2.6 9.1-4 1.2-2.6-9.2z"/>
			<path id="Layer" fill-rule="evenodd" class="s2" d="m131.7 27.2l9.5 0.7c4.7 0.3 7.4 3 7.1 7-0.1 2.7-1.5 4.5-3.8 5.3 2.4 1 3.6 3 3.4 5.8-0.2 4-3.3 6.3-8.3 5.9l-9.6-0.8zm3.2 14.1l-0.4 6.6 5.4 0.3c2.3 0.2 3.7-0.8 3.9-3 0.1-2-1.1-3.4-3.5-3.5zm0.7-10.1l-0.5 6.6 5.1 0.3c2.3 0.2 3.7-0.9 3.8-3 0.2-2.1-1.1-3.3-3.4-3.5z"/>
			<path id="Layer" fill-rule="evenodd" class="s2" d="m145.9 52l15.8-20.2 4 1.5 0.7 25.6-4.2-1.4v-5.8l-8.6-2.9-3.5 4.7zm10-6.4l6.2 2.1-0.2-8.3c0-0.6 0-1.4 0.1-1.9-0.2 0.5-0.6 1-1.1 1.6z"/>
			<path id="Layer" class="s2" d="m170.8 47.6c4-6.3 10.7-7.8 16.6-4 4.7 3.1 6.5 8.3 4.4 13l-3.8-2.4c0.9-2.7-0.2-5.5-2.9-7.2-3.8-2.4-7.8-1.2-10.6 3.1-2.8 4.3-2.3 8.6 1.5 11 2.7 1.8 5.7 1.7 7.8-0.1l3.7 2.5c-3.5 3.7-9 4.1-13.8 1-5.8-3.9-7-10.6-2.9-16.9z"/>
			<path id="Layer" class="s2" d="m194.8 66.4l15.8-1.1 3.4 3.7-13 0.8-4.9 15.2-3.3-3.6 3.7-11.3-6.4 0.4-3.9 3.4-2.8-3.2 18-15.9 2.8 3.1z"/>
			<path id="Layer" class="s2" d="m105.6 119.3l-1.2-4.3 7.2-11.3-15.3 4.1-1.6-5.7 23.5-6.3 1.3 5.1-6.7 10.8c6-0.4 11.4 2.6 13.2 9.1 2 7.6-2.6 14-10.1 16-7.2 2-14-1-16.2-9l6.4-1.7c1.2 4.2 4.4 6 8.4 4.9 4.1-1.1 6-4.4 4.9-8.6-1-3.7-4.2-5.8-9.3-4.4l-4.5 1.2z"/>
			<path id="Layer" fill-rule="evenodd" class="s2" d="m138.3 89.6c9.5-2.5 17.8 3.7 20.9 15.2 3 11.5-0.8 20.6-10.6 23.3-9.8 2.6-17.6-3.6-20.7-15-3.1-11.5 1-20.9 10.4-23.5zm8.8 32.7c5.9-1.5 8-7.2 5.7-15.9-2.3-8.8-7-12.6-12.9-11.1-5.9 1.6-8 7.3-5.7 16.1 2.3 8.6 7.1 12.5 12.9 10.9z"/>
			<path id="Layer" fill-rule="evenodd" class="s2" d="m111.7 168.4l-4.9-18.5 6.4-1.8c5.5-1.4 10.2 1.4 11.7 6.9 1.5 5.4-1.2 10.2-6.6 11.6zm-0.9-16.4l3.4 12.6 3.1-0.8c3.7-1 5.3-4 4.2-7.9-1-3.9-4-5.7-7.8-4.7l-2.9 0.8z"/>
			<path id="Layer" fill-rule="evenodd" class="s2" d="m127.7 164.1l1.7-20.3 3.3-0.9 11.7 16.7-3.5 1-2.6-3.9-6.9 1.8-0.3 4.7zm4-8.5l5-1.4-3.8-5.4c-0.2-0.5-0.6-1-0.7-1.3 0 0.4 0 1 0 1.5z"/>
			<path id="Layer" class="s2" d="m138.1 141.5l3.6-1 5.4 5.8c0.4 0.4 0.7 0.8 1 1.2 0.1-0.5 0.2-0.9 0.3-1.5l1.7-7.8 3.6-0.9-3.3 12.9 2 7.3-3.2 0.9-2-7.4z"/>
			<path id="Layer" class="s2" d="m161.1 134.9c3.7-1 6.6 0.5 7.7 3.8l-3.3 0.8c-0.5-1.6-1.8-2.2-3.7-1.7-1.9 0.5-3 1.9-2.6 3.4 0.4 1.4 1.3 1.9 2.9 1.8l3.1-0.1c3.3-0.1 5.3 1.1 6 3.8 1 3.5-1.1 6.4-5.2 7.5-3.9 1.1-7.1-0.3-8-3.6l3.2-0.9c0.4 1.6 1.9 2.2 4 1.6 2.2-0.5 3.3-1.8 2.9-3.4-0.3-1.2-1.2-1.8-2.8-1.7l-3.1 0.1c-3.4 0.2-5.5-1.1-6.2-4-0.9-3.4 1.1-6.3 5.1-7.4z"/>
			<path id="Layer" class="s2" d="m46.9 143.3l4.1 6.5 7.4-2-4.8 5.9 4.2 6.4-7.2-2.8-4.8 6 0.4-7.6-7.1-2.7 7.3-2z"/>
			<path id="Layer" class="s2" d="m213.3 98.7l4.1 6.5 7.4-2-4.8 5.9 4.2 6.4-7.2-2.8-4.8 6 0.4-7.6-7.1-2.7 7.4-2z"/>
		</g>
	</g>
</svg>