<svg width="20" height="20" viewBox="0 0 20 20" fill="none" xmlns="http://www.w3.org/2000/svg">
<path d="M6.66666 4.99999C7.58714 4.99999 8.33333 4.2538 8.33333 3.33332C8.33333 2.41285 7.58714 1.66666 6.66666 1.66666C5.74619 1.66666 5 2.41285 5 3.33332C5 4.2538 5.74619 4.99999 6.66666 4.99999Z" fill="#4A515D"/>
<path d="M6.66666 11.6667C7.58714 11.6667 8.33333 10.9205 8.33333 10C8.33333 9.07954 7.58714 8.33334 6.66666 8.33334C5.74619 8.33334 5 9.07954 5 10C5 10.9205 5.74619 11.6667 6.66666 11.6667Z" fill="#4A515D"/>
<path d="M6.66666 18.3333C7.58714 18.3333 8.33333 17.5871 8.33333 16.6667C8.33333 15.7462 7.58714 15 6.66666 15C5.74619 15 5 15.7462 5 16.6667C5 17.5871 5.74619 18.3333 6.66666 18.3333Z" fill="#4A515D"/>
<path d="M13.3327 4.99999C14.2532 4.99999 14.9993 4.2538 14.9993 3.33332C14.9993 2.41285 14.2532 1.66666 13.3327 1.66666C12.4122 1.66666 11.666 2.41285 11.666 3.33332C11.666 4.2538 12.4122 4.99999 13.3327 4.99999Z" fill="#4A515D"/>
<path d="M13.3327 11.6667C14.2532 11.6667 14.9993 10.9205 14.9993 10C14.9993 9.07954 14.2532 8.33334 13.3327 8.33334C12.4122 8.33334 11.666 9.07954 11.666 10C11.666 10.9205 12.4122 11.6667 13.3327 11.6667Z" fill="#4A515D"/>
<path d="M13.3327 18.3333C14.2532 18.3333 14.9993 17.5871 14.9993 16.6667C14.9993 15.7462 14.2532 15 13.3327 15C12.4122 15 11.666 15.7462 11.666 16.6667C11.666 17.5871 12.4122 18.3333 13.3327 18.3333Z" fill="#4A515D"/>
</svg>
