<svg width="24" height="22" viewBox="0 0 24 22" fill="none" xmlns="http://www.w3.org/2000/svg">
<g filter="url(#filter0_d_862_926)">
<path d="M19.9999 17.9999L21.5539 10.7524C21.7673 9.89847 21.2217 9.20007 20.3421 9.20007H19.2C17.8437 7.38135 16.1983 6.19815 14.4633 5.62C14.9165 5.06776 15.1999 4.37056 15.1999 3.60016C15.1999 1.83304 13.7671 0.400238 12 0.400238C10.2329 0.400238 8.80007 1.83304 8.80007 3.60016C8.80007 4.37056 9.08375 5.06776 9.53663 5.62C7.80167 6.19815 6.15599 7.38087 4.79999 9.20007H3.65831C2.77823 9.20007 2.23295 9.89847 2.44607 10.7524L4.00007 17.9999H2.39999V19.5997H21.5997V17.9999H19.9999ZM12 2.00008C12.8837 2.00008 13.6001 2.71648 13.6001 3.60016C13.6001 4.48384 12.8837 5.20024 12 5.20024C11.1163 5.20024 10.3999 4.48384 10.3999 3.60016C10.3999 2.71648 11.1163 2.00008 12 2.00008ZM12 6.80007C13.8485 6.80007 15.6235 7.64967 17.1 9.20007H6.89975C8.37695 7.65015 10.1508 6.80007 12 6.80007ZM18.3633 17.9999H5.63639L4.09271 10.7999H19.9085L18.3633 17.9999Z" fill="#475467"/>
</g>
<defs>
<filter id="filter0_d_862_926" x="-1.6001" y="0.400238" width="27.2002" height="27.1995" filterUnits="userSpaceOnUse" color-interpolation-filters="sRGB">
<feFlood flood-opacity="0" result="BackgroundImageFix"/>
<feColorMatrix in="SourceAlpha" type="matrix" values="0 0 0 0 0 0 0 0 0 0 0 0 0 0 0 0 0 0 127 0" result="hardAlpha"/>
<feOffset dy="4"/>
<feGaussianBlur stdDeviation="2"/>
<feComposite in2="hardAlpha" operator="out"/>
<feColorMatrix type="matrix" values="0 0 0 0 0 0 0 0 0 0 0 0 0 0 0 0 0 0 0.25 0"/>
<feBlend mode="normal" in2="BackgroundImageFix" result="effect1_dropShadow_862_926"/>
<feBlend mode="normal" in="SourceGraphic" in2="effect1_dropShadow_862_926" result="shape"/>
</filter>
</defs>
</svg>
